<svg width="23" height="21" viewBox="0 0 23 21" fill="none" xmlns="http://www.w3.org/2000/svg">
<path d="M19.4067 0H3.09334C1.38771 0 0 1.38744 0 3.09334V13.0768C0 14.7788 1.38167 16.164 3.08235 16.1701V20.7004L9.59299 16.1701H19.4067C21.1123 16.1701 22.5 14.7824 22.5 13.0768V3.09334C22.5 1.38744 21.1123 0 19.4067 0ZM21.1816 13.0768C21.1816 14.0554 20.3854 14.8517 19.4067 14.8517H9.17935L4.40071 18.177V14.8517H3.09334C2.11459 14.8517 1.31836 14.0554 1.31836 13.0768V3.09334C1.31836 2.11446 2.11459 1.31836 3.09334 1.31836H19.4067C20.3854 1.31836 21.1816 2.11446 21.1816 3.09334V13.0768Z" fill="black"/>
<circle cx="7" cy="9" r="1" fill="black"/>
<circle cx="15" cy="9" r="1" fill="black"/>
<circle cx="11" cy="9" r="1" fill="black"/>
</svg>
