<?xml version="1.0" ?><!DOCTYPE svg  PUBLIC '-//W3C//DTD SVG 1.0//EN'  'http://www.w3.org/TR/2001/REC-SVG-20010904/DTD/svg10.dtd'><svg enable-background="new 0 0 512 512" id="Layer_1" version="1.0" viewBox="0 0 512 512" xml:space="preserve" xmlns="http://www.w3.org/2000/svg" xmlns:xlink="http://www.w3.org/1999/xlink"><g><g><g><g><path d="M273.5,206.3C273.5,206.3,273.5,206.3,273.5,206.3c0-4.1-3.4-7.5-7.5-7.5c-4.1,0-7.5,3.4-7.5,7.5c0,0,0,0,0,0      c0,4.1,3.4,7.5,7.5,7.5C270.1,213.8,273.5,210.4,273.5,206.3L273.5,206.3z"/></g></g><g><path d="M308.7,139c-8.8-3.2-17.9-5.6-27.4-7.2c-8-1.3-16.3-2-24.6-2c-16.5,0-32.4,2.6-47.3,7.5     c-60.7,19.9-104.4,76.9-104.4,144.2c0,83.8,67.9,151.7,151.8,151.7c8.4,0,16.6-0.7,24.6-2c72.1-11.8,127.1-74.3,127.1-149.7     C408.4,216,366.8,160.2,308.7,139z M332.5,279.5l-19,18.5c-4.1,4-5.9,9.6-5,15.2l4.5,26.1c2.4,14-12.3,24.8-25,18.1l-23.4-12.3     c-5-2.6-11-2.6-16,0c-11.7,6.1-6.4,3.4-23.5,12.3c-12.6,6.6-27.4-4.1-25-18.1l4.5-26.1c1-5.6-0.9-11.3-5-15.2l-19-18.5     c-10.2-10-4.6-27.3,9.5-29.3l26.2-3.8c5.6-0.8,10.4-4.3,12.9-9.4l11.7-23.7c1.5-3,3.6-5.3,6-6.8h0c5.7-3.7,13.1-3.7,18.8,0h0     c2.5,1.6,4.6,3.9,6,6.8c4.3,8.6,1.8,3.5,11.7,23.7c2.5,5.1,7.3,8.6,12.9,9.4l26.2,3.8C337,252.2,342.7,269.5,332.5,279.5z" fill="#F7941E"/><g><path d="M327.2,274.2c-4.3,4.2-8.6,8.4-13,12.6c-5.9,5.8-11.8,11.1-13,19.8c-1,7,1.2,14.7,2.4,21.6c1,5.6,3.3,12.3,1.5,17.9      c-2.3,7.1-10.5,6.2-15.6,3.5c-6.4-3.3-12.7-6.7-19.1-10c-3.2-1.7-6.4-3.1-10.1-3.7c-7.3-1.1-13.1,1.4-19.4,4.7      c-6.5,3.4-13,6.8-19.5,10.2c-3.3,1.8-7.5,1.1-10.4-1.2c-1.5-1.3-2.5-2.8-3.1-4.7c-0.4-1.1-0.4-1.9-0.4-3      c-0.1-3.9-0.2,0.3,0.1-1.1c1.1-6.7,2.3-13.4,3.4-20.1c1.6-9.2,2.3-17.9-3.9-25.8c-3.9-5-9.1-9.2-13.6-13.6      c-3.5-3.4-9.9-7.8-10.4-13.1c-0.7-7.3,5.1-10.3,11.3-11.2c14.4-2.1,34.2-1.4,41.6-16.5c2.4-4.8,4.7-9.6,7.1-14.3      c2-4.1,4.1-10.6,7.9-13.4c-1.3,0.3-2.5,0.7-3.8,1c3.2,0,5.5-2.5,8.6-2.7c3.9-0.3,6.4,2.7,10.1,2.7c-1.3-0.3-2.5-0.7-3.8-1      c4.4,3.1,7,11.6,9.4,16.4c3.2,6.4,5.7,13.5,11.1,18.4c3.8,3.5,8.6,5.4,13.6,6.1c8,1.2,15.9,2.3,23.9,3.5      C328.6,258.5,333.8,267.3,327.2,274.2c-6.7,7,3.9,17.6,10.6,10.6c11.1-11.6,8.9-28.6-3.5-38.1c-7.1-5.5-19.7-5.3-28.2-6.5      c-3.4-0.5-7.7-0.5-10.9-2c-3.6-1.6-4.9-5-6.6-8.4c-1.6-3.2-3.2-6.5-4.8-9.7c-3.6-7.3-8.3-21.3-17.8-21.3c1.3,0.3,2.5,0.7,3.8,1      c-8.3-4.9-18-4.9-26.3,0c1.3-0.3,2.5-0.7,3.8-1c-8.4,0-12.7,10.9-15.8,17.2c-2.8,5.7-5.6,11.3-8.4,17      c-3.2,6.5-10.6,6.3-16.8,7.2c-6,0.9-12,1.7-17.9,2.6c-10.9,1.6-19,11.4-20.1,22.1c-0.9,8.7,3.2,15.8,9.2,21.7      c5.1,5,10.3,10,15.4,15.1c4.9,4.8,4.8,8.4,3.7,14.3c-1.2,6.8-2.4,13.7-3.5,20.5c-1.8,10.7,1.8,20,10.7,26.4      c18.2,13.2,34.7-8.1,51.6-12.3c2.8-0.7,5.6,0.9,7.9,2.2c3.4,1.8,6.8,3.6,10.2,5.3c5.8,3.1,12.2,7.4,18.8,8.4      c12.3,1.8,22.7-5.3,27.2-16.4c2.8-6.8,0.4-15-0.8-22c-0.8-4.9-1.7-9.9-2.5-14.8c-0.6-3.7-0.3-7.1,3.2-10.6      c6.1-6,12.3-12,18.4-18C344.7,278,334.1,267.4,327.2,274.2z"/><path d="M310.7,131.7c-53.6-19.3-113.7-7.9-157.2,28.5c-36.7,30.7-57.1,77.9-56,125.5c1,45.4,22.4,89,57.2,118.1      c37.6,31.3,87.6,43.2,135.4,33.4c44.8-9.2,84-39.2,106.1-79c23.2-41.7,25.8-93.4,7.6-137.5C386.6,179.4,352.6,147.2,310.7,131.7      c-9.1-3.4-13,11.1-4,14.5c43.4,16.1,76.7,52.7,89.1,97.2c12.4,44.3,1.9,93.4-27.1,129c-30.2,37.1-77.1,56.6-124.6,52.9      c-43.6-3.4-84.1-28.2-108-64.6c-25.4-38.5-30.2-87.5-14.2-130.6c16.3-43.9,54.9-77.1,100-88.6c28-7.2,57.8-5.1,84.9,4.7      C315.8,149.5,319.7,135,310.7,131.7z"/></g></g><g><path d="M332.5,279.5l-19,18.5c-4.1,4-5.9,9.6-5,15.2l4.5,26.1c2.4,14-12.3,24.8-25,18.1l-23.4-12.3     c-5-2.6-11-2.6-16,0c-11.7,6.1-6.4,3.4-23.5,12.3c-12.6,6.6-27.4-4.1-25-18.1l4.5-26.1c1-5.6-0.9-11.3-5-15.2l-19-18.5     c-10.2-10-4.6-27.3,9.5-29.3l26.2-3.8c5.6-0.8,10.4-4.3,12.9-9.4l11.7-23.7c1.5-3,3.6-5.3,6-6.8h0c5.7-3.7,13.1-3.7,18.8,0h0     c2.5,1.6,4.6,3.9,6,6.8c4.3,8.6,1.8,3.5,11.7,23.7c2.5,5.1,7.3,8.6,12.9,9.4l26.2,3.8C337,252.2,342.7,269.5,332.5,279.5z" fill="#726658"/><g><path d="M327.2,274.2c-4.3,4.2-8.6,8.4-13,12.6c-5.9,5.8-11.8,11.1-13,19.8c-1,7,1.2,14.7,2.4,21.6c1,5.6,3.3,12.3,1.5,17.9      c-2.3,7.1-10.5,6.2-15.6,3.5c-6.4-3.3-12.7-6.7-19.1-10c-3.2-1.7-6.4-3.1-10.1-3.7c-7.3-1.1-13.1,1.4-19.4,4.7      c-6.5,3.4-13,6.8-19.5,10.2c-3.3,1.8-7.5,1.1-10.4-1.2c-1.5-1.3-2.5-2.8-3.1-4.7c-0.4-1.1-0.4-1.9-0.4-3      c-0.1-3.9-0.2,0.3,0.1-1.1c1.1-6.7,2.3-13.4,3.4-20.1c1.6-9.2,2.3-17.9-3.9-25.8c-3.9-5-9.1-9.2-13.6-13.6      c-3.5-3.4-9.9-7.8-10.4-13.1c-0.7-7.3,5.1-10.3,11.3-11.2c14.4-2.1,34.2-1.4,41.6-16.5c2.4-4.8,4.7-9.6,7.1-14.3      c2-4.1,4.1-10.6,7.9-13.4c-1.3,0.3-2.5,0.7-3.8,1c3.2,0,5.5-2.5,8.6-2.7c3.9-0.3,6.4,2.7,10.1,2.7c-1.3-0.3-2.5-0.7-3.8-1      c4.4,3.1,7,11.6,9.4,16.4c3.2,6.4,5.7,13.5,11.1,18.4c3.8,3.5,8.6,5.4,13.6,6.1c8,1.2,15.9,2.3,23.9,3.5      C328.6,258.5,333.8,267.3,327.2,274.2c-6.7,7,3.9,17.6,10.6,10.6c11.1-11.6,8.9-28.6-3.5-38.1c-7.1-5.5-19.7-5.3-28.2-6.5      c-3.4-0.5-7.7-0.5-10.9-2c-3.6-1.6-4.9-5-6.6-8.4c-1.6-3.2-3.2-6.5-4.8-9.7c-3.6-7.3-8.3-21.3-17.8-21.3c1.3,0.3,2.5,0.7,3.8,1      c-8.3-4.9-18-4.9-26.3,0c1.3-0.3,2.5-0.7,3.8-1c-8.4,0-12.7,10.9-15.8,17.2c-2.8,5.7-5.6,11.3-8.4,17      c-3.2,6.5-10.6,6.3-16.8,7.2c-6,0.9-12,1.7-17.9,2.6c-10.9,1.6-19,11.4-20.1,22.1c-0.9,8.7,3.2,15.8,9.2,21.7      c5.1,5,10.3,10,15.4,15.1c4.9,4.8,4.8,8.4,3.7,14.3c-1.2,6.8-2.4,13.7-3.5,20.5c-1.8,10.7,1.8,20,10.7,26.4      c18.2,13.2,34.7-8.1,51.6-12.3c2.8-0.7,5.6,0.9,7.9,2.2c3.4,1.8,6.8,3.6,10.2,5.3c5.8,3.1,12.2,7.4,18.8,8.4      c12.3,1.8,22.7-5.3,27.2-16.4c2.8-6.8,0.4-15-0.8-22c-0.8-4.9-1.7-9.9-2.5-14.8c-0.6-3.7-0.3-7.1,3.2-10.6      c6.1-6,12.3-12,18.4-18C344.7,278,334.1,267.4,327.2,274.2z"/></g></g><g><path d="M272.7,464.9V489c0,6.8-5.5,12.2-12.2,12.2s-12.2-5.5-12.2-12.2v-24.1c0-6.8,5.5-12.2,12.2-12.2     S272.7,458.2,272.7,464.9z" fill="#F9ED32"/><g><path d="M265.2,464.9c0,6.6,0,13.2,0,19.8c0,2.2,0.5,5.4-1,7.2c-2.9,3.5-8.3,1.5-8.5-2.9c-0.4-6.5,0-13.2,0-19.8      c0-2.2-0.5-5.4,1-7.2C259.5,458.5,264.9,460.5,265.2,464.9c0.5,9.6,15.5,9.7,15,0c-0.5-9.5-6.7-17.8-16.4-19.4      c-10.3-1.7-19.8,4.8-22.5,14.8c-1.3,4.7-0.5,10.4-0.5,15.2c0,4.5,0,9,0,13.5c0,9.5,7.1,17.9,16.4,19.4      c10.3,1.7,19.8-4.8,22.5-14.8c1.3-4.7,0.6-10.4,0.6-15.2c0-4.5,0-9,0-13.5C280.2,455.3,265.2,455.3,265.2,464.9z"/></g></g><g><path d="M452.9,388c-2.3,3.9-6.4,6.1-10.6,6.1s-4.2-0.5-26.9-13.7c-5.9-3.4-7.9-10.9-4.5-16.7     c3.4-5.8,10.8-7.9,16.7-4.5l20.8,12C454.3,374.7,456.3,382.1,452.9,388z" fill="#F9ED32"/><g><path d="M446.4,384.2c-1.1,1.6-2.5,2.4-4.4,2.4c-2.4,0,1.2,0.4-0.2,0c-0.6-0.1-2.7-1.1-0.5-0.1c-1.2-0.5-2.3-1.2-3.5-1.8      c-4.2-2.3-8.4-4.8-12.6-7.3c-3.3-1.9-11.9-5.4-7.6-10.6c4.1-5,13.2,3,16.9,5.1C438.5,374.2,449.6,378,446.4,384.2      c-4.4,8.6,8.6,16.2,13,7.6c4.3-8.5,3.1-18.8-4.5-25.1c-3.5-2.9-7.9-4.9-11.8-7.2c-3.9-2.2-7.8-4.5-11.6-6.7      c-8.2-4.8-19.1-2.9-25.1,4.5c-6.5,8-5.5,18.2,0.7,26c3.2,4,9,6.2,13.3,8.7c3.1,1.8,6.2,3.6,9.3,5.4c10.6,6,22.2,5.8,29.7-5.6      C464.8,383.7,451.8,376.2,446.4,384.2z"/></g></g><g><path d="M451.6,177l-20.8,12c-5.9,3.4-13.3,1.4-16.7-4.5c-3.4-5.8-1.4-13.3,4.5-16.7l20.8-12     c5.8-3.4,13.3-1.4,16.7,4.5C459.5,166.2,457.5,173.7,451.6,177z" fill="#F9ED32"/><g><path d="M447.8,170.6c-5.7,3.3-11.4,6.6-17.1,9.9c-1.8,1.1-4.4,3.1-6.6,2.8c-4.6-0.7-5.5-6.4-1.8-8.8c5.5-3.6,11.4-6.6,17.1-9.9      c1.8-1.1,4.4-3.1,6.6-2.8C450.6,162.5,451.6,168.1,447.8,170.6c-8.1,5.3-0.6,18.3,7.6,13c8-5.2,12-14.8,8.5-24      c-3.7-9.8-14.2-14.6-24.1-12c-4.7,1.2-9.3,4.7-13.4,7.1c-3.9,2.3-7.8,4.5-11.7,6.8c-8.2,4.8-11.9,15.1-8.5,24      c3.7,9.8,14.2,14.6,24.1,12c4.7-1.2,9.3-4.7,13.4-7.1c3.9-2.3,7.8-4.5,11.7-6.8C463.8,178.7,456.2,165.7,447.8,170.6z"/></g></g><g><path d="M97.9,187.3c-3.4,5.8-10.8,7.8-16.7,4.5l-20.8-12c-5.9-3.4-7.9-10.9-4.5-16.7c3.4-5.8,10.8-7.9,16.7-4.5     l20.9,12C99.3,173.9,101.3,181.4,97.9,187.3z" fill="#F9ED32"/><g><path d="M91.5,183.5c-3.8,5.9-12.5-1.7-16.4-4c-3.9-2.3-15.8-6.4-12.6-12.7c3.2-6.2,13.1,2,16.4,4      C82.7,173,94.7,177.2,91.5,183.5c-4.4,8.6,8.6,16.2,13,7.6c4.3-8.5,3.1-18.8-4.5-25.1c-3.8-3.1-8.4-5.2-12.6-7.7      c-4-2.3-7.9-4.8-12-6.9c-9.4-4.8-20.2-0.7-25.8,7.8c-5.2,7.9-2.5,19.3,4.5,25.1c3.8,3.1,8.4,5.3,12.6,7.7c4,2.3,7.9,4.8,12,6.9      c9.4,4.8,20.2,0.7,25.8-7.8C109.7,182.9,96.7,175.4,91.5,183.5z"/></g></g><g><g><path d="M100.4,384.3l-20.8,12c-5.9,3.4-13.3,1.4-16.7-4.5c-3.4-5.8-1.4-13.3,4.5-16.7l20.9-12      c5.8-3.4,13.3-1.4,16.7,4.5C108.3,373.5,106.3,381,100.4,384.3z" fill="#F9ED32"/><g><path d="M96.6,377.9c-5.7,3.3-11.4,6.6-17.1,9.9c-1.8,1.1-4.4,3.1-6.6,2.8c-4.6-0.7-5.5-6.4-1.8-8.8c5.5-3.6,11.4-6.6,17.1-9.9       c1.8-1.1,4.4-3.1,6.6-2.8C99.5,369.8,100.4,375.4,96.6,377.9c-8.1,5.3-0.6,18.3,7.6,13c8-5.2,12-14.8,8.5-24       c-3.7-9.8-14.1-14.6-24.1-12c-4.7,1.2-9.3,4.7-13.4,7.1c-3.9,2.3-7.8,4.5-11.7,6.8c-8.2,4.7-11.9,15.1-8.5,24       c3.7,9.8,14.2,14.6,24.1,12c4.7-1.2,9.3-4.7,13.4-7.1c3.9-2.3,7.8-4.5,11.7-6.8C112.6,386,105,373,96.6,377.9z"/></g></g></g></g><g><path d="M308.7,37.3V139c-8.8-3.2-17.9-5.6-27.4-7.2c-8-1.3-16.3-2-24.6-2c-16.5,0-32.4,2.6-47.3,7.5V10.8    L308.7,37.3z" fill="#EF4136"/><g><path d="M301.2,37.3c0,33.9,0,67.8,0,101.7c3.2-2.4,6.3-4.8,9.5-7.2c-33.2-11.9-69.8-12.4-103.3-1.7c3.2,2.4,6.3,4.8,9.5,7.2     c0-42.2,0-84.4,0-126.5c-3.2,2.4-6.3,4.8-9.5,7.2c33.1,8.8,66.2,17.7,99.3,26.5c9.4,2.5,13.3-12,4-14.5     c-33.1-8.8-66.2-17.7-99.3-26.5c-4.7-1.3-9.5,2.3-9.5,7.2c0,42.2,0,84.4,0,126.5c0,4.7,4.8,8.7,9.5,7.2     c31.2-10,64.5-9.4,95.4,1.7c4.7,1.7,9.5-2.6,9.5-7.2c0-33.9,0-67.8,0-101.7C316.2,27.6,301.2,27.6,301.2,37.3z"/></g></g></g></svg>