<?xml version="1.0" encoding="utf-8"?>
<!-- Generator: Adobe Illustrator 16.0.0, SVG Export Plug-In . SVG Version: 6.00 Build 0)  -->
<!DOCTYPE svg PUBLIC "-//W3C//DTD SVG 1.1//EN" "http://www.w3.org/Graphics/SVG/1.1/DTD/svg11.dtd">
<svg version="1.1" id="Layer_1" xmlns="http://www.w3.org/2000/svg" xmlns:xlink="http://www.w3.org/1999/xlink" x="0px" y="0px"
	 width="792px" height="733px" viewBox="0 0 792 733" enable-background="new 0 0 792 733" xml:space="preserve">
<g>
	
		<image overflow="visible" opacity="0.5" width="658" height="567" xlink:href="596BF40B.png"  transform="matrix(1 0 0 1 76.5 320)">
	</image>
	<g>
		<path fill="#2D2D84" d="M494.5,522.912c-14.85,0-24.75-4.581-39.6-9.162l-59.4-22.906l-59.4,22.906
			c-9.899,4.581-24.75,9.162-39.6,9.162c-9.9,0-14.85,0.001-24.75-4.581L247,697l148.5-91.625L544,697l-29.7-178.669
			C509.35,522.913,499.45,522.912,494.5,522.912z"/>
	</g>
</g>
<g>
	
		<image overflow="visible" opacity="0.5" width="913" height="874" xlink:href="596BF409.png"  transform="matrix(1 0 0 1 -50.5 -170)">
	</image>
	<g>
		<path fill="#2D2D84" d="M638.55,270.294c-4.95-9.163-4.95-22.907,0-32.069l29.7-54.975c9.9-18.325,0-41.231-24.75-50.394
			l-64.35-22.906c-9.9-4.581-19.801-13.744-24.75-22.906l-24.75-59.557C524.7,9.163,509.85,0,495,0c-4.95,0-14.85,0-19.8,4.581
			L410.85,32.069H396c-4.95,0-9.9,0-14.85-4.582L316.8,4.581C311.85,0,301.95,0,297,0c-14.85,0-29.7,9.163-39.6,22.906
			l-24.75,64.138c0,9.162-9.9,18.325-19.8,22.906l-69.3,22.906c-19.8,4.582-29.7,27.488-19.8,50.394l29.7,59.556
			c4.95,9.163,4.95,22.906,0,32.069l-29.7,54.975c-9.9,18.325,0,41.231,24.75,50.394l64.35,22.906
			c9.9,4.581,19.8,13.743,24.75,22.905l24.75,59.558c4.95,18.324,19.8,27.486,34.65,27.486c4.95,0,9.9,0,14.85-4.581l64.351-27.487
			c4.95,0,9.899-4.581,14.85-4.581s9.9,0,14.851,4.581l64.35,27.487c4.95,4.581,9.9,4.581,14.85,4.581
			c14.851,0,29.7-9.162,39.601-22.905l24.75-59.558c4.95-9.162,14.85-18.324,24.75-22.905l64.35-22.906
			c19.8-9.163,34.65-32.069,24.75-50.394L638.55,270.294L638.55,270.294z M396,439.8c-108.9,0-198-82.463-198-183.25
			C198,155.762,287.1,73.3,396,73.3c108.9,0,198,82.462,198,183.25C594,357.337,504.9,439.8,396,439.8z"/>
	</g>
</g>
<g>
	
		<image overflow="visible" opacity="0.5" width="658" height="731" xlink:href="596BF40F.png"  transform="matrix(1 0 0 1 75.5 -98)">
	</image>
	<g>
		<path fill="#2D2D84" d="M542.506,257.499c0,49.048-15.645,96.087-43.495,130.769c-27.849,34.683-65.62,54.167-105.005,54.167
			s-77.156-19.484-105.005-54.167c-27.85-34.682-43.495-81.721-43.495-130.769c0-49.046,15.645-96.085,43.495-130.768
			c27.849-34.682,65.62-54.166,105.005-54.166s77.156,19.484,105.005,54.166C526.861,161.413,542.506,208.452,542.506,257.499
			L542.506,257.499z"/>
	</g>
</g>
<g>
	
		<image overflow="visible" opacity="0.5" width="532" height="525" xlink:href="596BF408.png"  transform="matrix(1 0 0 1 139.5 5)">
	</image>
	<g>
		<path fill="#FFFFFF" d="M475.473,233.101l-51.262-7.528l-22.916-46.942c-0.626-1.285-1.656-2.325-2.928-2.958
			c-3.19-1.591-7.066-0.265-8.661,2.958l-22.916,46.942l-51.262,7.528c-1.414,0.204-2.706,0.877-3.695,1.897
			c-1.196,1.243-1.855,2.914-1.832,4.647c0.022,1.732,0.725,3.385,1.953,4.595l37.089,36.538l-8.762,51.593
			c-0.206,1.2-0.074,2.434,0.379,3.563c0.454,1.128,1.211,2.106,2.186,2.822c0.977,0.716,2.13,1.141,3.332,1.227
			c1.203,0.087,2.405-0.168,3.472-0.737l45.851-24.358l45.852,24.358c1.252,0.673,2.705,0.898,4.1,0.653
			c3.513-0.612,5.875-3.978,5.269-7.528l-8.762-51.593l37.089-36.538c1.009-1,1.676-2.305,1.877-3.733
			C481.47,236.937,479.006,233.632,475.473,233.101z"/>
	</g>
</g>
</svg>
