 <svg width="51" height="41" viewBox="0 0 51 41" fill="none" xmlns="http://www.w3.org/2000/svg">
<path fill-rule="evenodd" clip-rule="evenodd" d="M34.4376 1.00319L16.8961 1.00148L16.8953 1.00063C16.7476 0.992092 16.6024 1.07065 16.5332 1.21154L1.04543 32.4382C0.990782 32.5398 0.983097 32.6636 1.03518 32.7764L4.27142 39.7552C4.30557 39.8406 4.37132 39.914 4.46098 39.9567C4.52417 39.9866 4.59077 39.9977 4.65567 39.9926L46.5278 40.0387C46.6797 40.0489 46.83 39.9661 46.8975 39.8192L49.9664 33.2042H49.9655C49.9843 33.1632 49.9962 33.1188 49.9997 33.0718V33.0667V33.0641V33.0564V33.0556C50.0005 33.0394 49.9997 33.024 49.998 33.0078V33.0069L49.9971 32.9992L49.9963 32.9958V32.9932C49.9903 32.9505 49.9775 32.9104 49.9587 32.8737L34.7834 1.22776C34.7245 1.09541 34.5921 1.00319 34.4376 1.00319ZM28.6909 14.1915L31.6257 8.54131L40.0886 26.1254L34.2933 26.1007L28.6909 14.1915ZM28.036 13.8081L31.0118 8.07764L20.059 8.17072L5.22779 39.2369L46.3117 39.2821L49.028 33.4262L13.3286 33.4757C13.1194 33.4757 12.9495 33.3058 12.9495 33.0966C12.9495 33.0376 12.9632 32.9813 12.9871 32.9318H12.9862L22.0408 14.118C22.1083 13.978 22.2509 13.8986 22.3969 13.9037L28.0351 13.8072L28.036 13.8081ZM20.0598 7.41331L17.4657 1.75972V1.75887L34.1993 1.76058L49.0211 32.6687L13.9323 32.7174L16.8116 26.7351C16.8671 26.7667 16.9311 26.7855 16.9994 26.7855L34.0456 26.858H34.0593L40.6709 26.8862C40.7333 26.8905 40.7982 26.8785 40.8588 26.8495C41.0475 26.759 41.1269 26.5319 41.0355 26.3432L31.9809 7.52944H31.9801C31.9186 7.40136 31.7871 7.31426 31.6359 7.31512L20.0598 7.41331ZM19.3989 7.78989L16.862 2.26096L1.80281 32.6244L4.63174 38.7237L19.3997 7.78989H19.3989ZM28.0308 14.5663L33.4556 26.0981H33.4547L17.1514 26.0289L22.624 14.6586L28.0308 14.5663Z" fill="white"/>
<path d="M16.8961 1.00148L16.7517 1.14582L16.8115 1.20564L16.8961 1.20565L16.8961 1.00148ZM34.4376 1.00319L34.4375 1.20736H34.4376V1.00319ZM16.8953 1.00063L17.0397 0.856293L16.9847 0.801292L16.9071 0.796804L16.8953 1.00063ZM16.5332 1.21154L16.7162 1.30226L16.7165 1.30151L16.5332 1.21154ZM1.04543 32.4382L1.22534 32.535L1.22834 32.5289L1.04543 32.4382ZM1.03518 32.7764L0.84985 32.862L0.849963 32.8622L1.03518 32.7764ZM4.27142 39.7552L4.46126 39.6792L4.45664 39.6693L4.27142 39.7552ZM4.46098 39.9567L4.3732 40.141L4.37369 40.1413L4.46098 39.9567ZM4.65567 39.9926L4.65589 39.7884L4.64773 39.7884L4.6396 39.789L4.65567 39.9926ZM46.5278 40.0387L46.5415 39.8345L46.528 39.8345L46.5278 40.0387ZM46.8975 39.8192L46.7123 39.7333L46.712 39.734L46.8975 39.8192ZM49.9664 33.2042L50.1516 33.2901L50.2861 33H49.9664V33.2042ZM49.9655 33.2042L49.7799 33.1191L49.6474 33.4083H49.9655V33.2042ZM49.9997 33.0718L50.2033 33.0866L50.2038 33.0792V33.0718H49.9997ZM49.9997 33.0556L49.7955 33.0448V33.0556H49.9997ZM49.998 33.0078H49.7938V33.0185L49.7949 33.0291L49.998 33.0078ZM49.998 33.0069H50.2021V32.9956L50.2009 32.9843L49.998 33.0069ZM49.9971 32.9992L50.2 32.9767L50.1985 32.9631L50.1952 32.9499L49.9971 32.9992ZM49.9963 32.9958H49.7921V33.0208L49.7981 33.0451L49.9963 32.9958ZM49.9963 32.9932H50.2004V32.979L50.1984 32.9649L49.9963 32.9932ZM49.9587 32.8737L49.7745 32.962L49.7769 32.9667L49.9587 32.8737ZM34.7834 1.22776L34.5968 1.31083L34.5993 1.31604L34.7834 1.22776ZM31.6257 8.54131L31.8097 8.45277L31.6327 8.08498L31.4445 8.4472L31.6257 8.54131ZM28.6909 14.1915L28.5097 14.0974L28.4632 14.187L28.5062 14.2784L28.6909 14.1915ZM40.0886 26.1254L40.0877 26.3296L40.4141 26.331L40.2726 26.0369L40.0886 26.1254ZM34.2933 26.1007L34.1085 26.1876L34.1634 26.3043L34.2924 26.3048L34.2933 26.1007ZM31.0118 8.07764L31.193 8.17174L31.3493 7.8706L31.01 7.87349L31.0118 8.07764ZM28.036 13.8081L27.8916 13.9525L28.0887 14.1496L28.2172 13.9022L28.036 13.8081ZM20.059 8.17072L20.0572 7.96656L19.9297 7.96764L19.8747 8.08276L20.059 8.17072ZM5.22779 39.2369L5.04354 39.1489L4.90424 39.4407L5.22756 39.441L5.22779 39.2369ZM46.3117 39.2821L46.3115 39.4863L46.442 39.4864L46.4969 39.368L46.3117 39.2821ZM49.028 33.4262L49.2132 33.5121L49.3479 33.2215L49.0277 33.222L49.028 33.4262ZM13.3286 33.4757V33.6798H13.3289L13.3286 33.4757ZM12.9871 32.9318L13.1709 33.0205L13.3123 32.7276H12.9871V32.9318ZM12.9862 32.9318L12.8022 32.8432L12.6614 33.1359H12.9862V32.9318ZM22.0408 14.118L21.8569 14.0294L21.8569 14.0295L22.0408 14.118ZM22.3969 13.9037L22.3897 14.108L22.4004 14.1079L22.3969 13.9037ZM28.0351 13.8072L28.1795 13.6629L28.1182 13.6016L28.0316 13.6031L28.0351 13.8072ZM17.4657 1.75972H17.2615V1.80433L17.2801 1.84487L17.4657 1.75972ZM20.0598 7.41331L19.8742 7.49846L19.9293 7.6186L20.0615 7.61747L20.0598 7.41331ZM17.4657 1.75887L17.4657 1.5547L17.2615 1.55468V1.75887H17.4657ZM34.1993 1.76058L34.3834 1.6723L34.3278 1.55643L34.1993 1.55641L34.1993 1.76058ZM49.0211 32.6687L49.0214 32.8729L49.3452 32.8725L49.2052 32.5805L49.0211 32.6687ZM13.9323 32.7174L13.7483 32.6289L13.6072 32.922L13.9326 32.9216L13.9323 32.7174ZM16.8116 26.7351L16.9126 26.5577L16.7225 26.4494L16.6276 26.6465L16.8116 26.7351ZM16.9994 26.7855L17.0003 26.5813H16.9994V26.7855ZM34.0456 26.858L34.0447 27.0622H34.0456V26.858ZM34.0593 26.858L34.0601 26.6539H34.0593V26.858ZM40.6709 26.8862L40.6849 26.6821L40.6718 26.6821L40.6709 26.8862ZM40.8588 26.8495L40.947 27.0336L40.9471 27.0336L40.8588 26.8495ZM41.0355 26.3432L40.8516 26.4317L40.8518 26.4321L41.0355 26.3432ZM31.9809 7.52944L32.1649 7.4409L32.1092 7.32528H31.9809V7.52944ZM31.9801 7.52944L31.796 7.61779L31.8516 7.73361H31.9801V7.52944ZM31.6359 7.31512L31.6348 7.11095L31.6342 7.11096L31.6359 7.31512ZM16.862 2.26096L17.0475 2.17582L16.8691 1.78701L16.6791 2.17025L16.862 2.26096ZM19.3989 7.78989L19.2133 7.87503L19.2679 7.99405H19.3989V7.78989ZM1.80281 32.6244L1.6199 32.5336L1.57638 32.6214L1.6176 32.7103L1.80281 32.6244ZM4.63174 38.7237L4.44652 38.8096L4.62907 39.2032L4.81599 38.8116L4.63174 38.7237ZM19.3997 7.78989L19.584 7.87785L19.7234 7.58572H19.3997V7.78989ZM33.4556 26.0981V26.3023H33.7773L33.6403 26.0112L33.4556 26.0981ZM28.0308 14.5663L28.2156 14.4794L28.1594 14.36L28.0273 14.3622L28.0308 14.5663ZM33.4547 26.0981L33.4539 26.3023H33.4547V26.0981ZM17.1514 26.0289L16.9675 25.9404L16.8273 26.2317L17.1506 26.2331L17.1514 26.0289ZM22.624 14.6586L22.6205 14.4544L22.4946 14.4566L22.44 14.57L22.624 14.6586ZM16.8961 1.20565L34.4375 1.20736L34.4376 0.799026L16.8962 0.797318L16.8961 1.20565ZM16.7509 1.14497L16.7517 1.14582L17.0405 0.857147L17.0397 0.856293L16.7509 1.14497ZM16.7165 1.30151C16.7481 1.23719 16.8146 1.20047 16.8835 1.20446L16.9071 0.796804C16.6806 0.783711 16.4567 0.904106 16.35 1.12157L16.7165 1.30151ZM1.22834 32.5289L16.7162 1.30226L16.3503 1.12082L0.862525 32.3475L1.22834 32.5289ZM1.22052 32.6907C1.19644 32.6386 1.19976 32.5823 1.22524 32.5349L0.86562 32.3415C0.781803 32.4974 0.769756 32.6887 0.84985 32.862L1.22052 32.6907ZM4.45664 39.6693L1.2204 32.6905L0.849963 32.8622L4.0862 39.8411L4.45664 39.6693ZM4.54876 39.7724C4.5068 39.7524 4.47662 39.7184 4.46098 39.6794L4.08185 39.831C4.13453 39.9627 4.23585 40.0756 4.3732 40.141L4.54876 39.7724ZM4.6396 39.789C4.60919 39.7914 4.57833 39.7863 4.54827 39.7721L4.37369 40.1413C4.47001 40.1868 4.57236 40.2039 4.67174 40.1961L4.6396 39.789ZM46.528 39.8345L4.65589 39.7884L4.65544 40.1967L46.5275 40.2428L46.528 39.8345ZM46.712 39.734C46.6812 39.8009 46.6122 39.8397 46.5415 39.835L46.514 40.2424C46.7473 40.2581 46.9788 40.1313 47.083 39.9044L46.712 39.734ZM49.7812 33.1182L46.7123 39.7333L47.0827 39.9051L50.1516 33.2901L49.7812 33.1182ZM49.9655 33.4083H49.9664V33H49.9655V33.4083ZM49.796 33.057C49.7945 33.0786 49.789 33.0992 49.7799 33.1191L50.1511 33.2892C50.1796 33.2271 50.198 33.159 50.2033 33.0866L49.796 33.057ZM49.7955 33.0667V33.0718H50.2038V33.0667H49.7955ZM49.7955 33.0641V33.0667H50.2038V33.0641H49.7955ZM49.7955 33.0564V33.0641H50.2038V33.0564H49.7955ZM49.7955 33.0556V33.0564H50.2038V33.0556H49.7955ZM49.7949 33.0291C49.7959 33.039 49.7959 33.0429 49.7958 33.0448L50.2035 33.0663C50.2052 33.0358 50.2034 33.009 50.201 32.9864L49.7949 33.0291ZM49.7938 33.0069V33.0078H50.2021V33.0069H49.7938ZM49.7942 33.0218L49.795 33.0295L50.2009 32.9843L50.2 32.9767L49.7942 33.0218ZM49.7981 33.0451L49.799 33.0485L50.1952 32.9499L50.1944 32.9465L49.7981 33.0451ZM49.7921 32.9932V32.9958H50.2004V32.9932H49.7921ZM49.7769 32.9667C49.7853 32.983 49.7912 33.0013 49.7941 33.0215L50.1984 32.9649C50.1893 32.8998 50.1696 32.8378 50.1404 32.7807L49.7769 32.9667ZM34.5993 1.31604L49.7746 32.962L50.1428 32.7854L34.9675 1.13949L34.5993 1.31604ZM34.4376 1.20736C34.5085 1.20736 34.5695 1.24939 34.5969 1.3108L34.9699 1.14473C34.8794 0.941436 34.6757 0.799026 34.4376 0.799026V1.20736ZM31.4445 8.4472L28.5097 14.0974L28.8721 14.2856L31.8069 8.63542L31.4445 8.4472ZM40.2726 26.0369L31.8097 8.45277L31.4417 8.62985L39.9046 26.214L40.2726 26.0369ZM34.2924 26.3048L40.0877 26.3296L40.0895 25.9213L34.2941 25.8965L34.2924 26.3048ZM28.5062 14.2784L34.1085 26.1876L34.478 26.0137L28.8756 14.1046L28.5062 14.2784ZM30.8306 7.98355L27.8548 13.714L28.2172 13.9022L31.193 8.17174L30.8306 7.98355ZM20.0607 8.37488L31.0135 8.2818L31.01 7.87349L20.0572 7.96656L20.0607 8.37488ZM5.41203 39.3248L20.2432 8.25868L19.8747 8.08276L5.04354 39.1489L5.41203 39.3248ZM46.312 39.0779L5.22801 39.0327L5.22756 39.441L46.3115 39.4863L46.312 39.0779ZM48.8427 33.3402L46.1265 39.1962L46.4969 39.368L49.2132 33.5121L48.8427 33.3402ZM13.3289 33.6798L49.0282 33.6303L49.0277 33.222L13.3283 33.2715L13.3289 33.6798ZM12.7453 33.0966C12.7453 33.4185 13.0067 33.6798 13.3286 33.6798V33.2715C13.2322 33.2715 13.1537 33.193 13.1537 33.0966H12.7453ZM12.8032 32.843C12.7663 32.9195 12.7453 33.0061 12.7453 33.0966H13.1537C13.1537 33.0691 13.16 33.0431 13.1709 33.0205L12.8032 32.843ZM12.9862 33.1359H12.9871V32.7276H12.9862V33.1359ZM21.8569 14.0295L12.8022 32.8432L13.1702 33.0203L22.2248 14.2066L21.8569 14.0295ZM22.4041 13.6997C22.1807 13.6918 21.9611 13.8132 21.8569 14.0294L22.2248 14.2067C22.2555 14.1428 22.3211 14.1054 22.3897 14.1078L22.4041 13.6997ZM28.0316 13.6031L22.3934 13.6996L22.4004 14.1079L28.0386 14.0114L28.0316 13.6031ZM28.1803 13.6637L28.1795 13.6629L27.8908 13.9516L27.8916 13.9525L28.1803 13.6637ZM17.2801 1.84487L19.8742 7.49846L20.2453 7.32817L17.6512 1.67458L17.2801 1.84487ZM17.2615 1.75887V1.75972H17.6698V1.75887H17.2615ZM34.1993 1.55641L17.4657 1.5547L17.4657 1.96304L34.1993 1.96475L34.1993 1.55641ZM49.2052 32.5805L34.3834 1.6723L34.0152 1.84886L48.837 32.757L49.2052 32.5805ZM13.9326 32.9216L49.0214 32.8729L49.0208 32.4646L13.932 32.5133L13.9326 32.9216ZM16.6276 26.6465L13.7483 32.6289L14.1163 32.806L16.9956 26.8236L16.6276 26.6465ZM16.9994 26.5813C16.9691 26.5813 16.9396 26.573 16.9126 26.5577L16.7106 26.9125C16.7946 26.9603 16.8932 26.9896 16.9994 26.9896V26.5813ZM34.0465 26.6539L17.0003 26.5813L16.9986 26.9896L34.0447 27.0622L34.0465 26.6539ZM34.0593 26.6539H34.0456V27.0622H34.0593V26.6539ZM40.6718 26.6821L34.0601 26.6539L34.0584 27.0622L40.6701 27.0904L40.6718 26.6821ZM40.7706 26.6654C40.7415 26.6793 40.7117 26.6844 40.6849 26.6825L40.657 27.0899C40.7548 27.0966 40.8548 27.0778 40.947 27.0336L40.7706 26.6654ZM40.8518 26.4321C40.8939 26.5192 40.8571 26.6239 40.7705 26.6654L40.9471 27.0336C41.2378 26.8941 41.3599 26.5445 41.2193 26.2542L40.8518 26.4321ZM31.7969 7.61798L40.8516 26.4317L41.2195 26.2546L32.1649 7.4409L31.7969 7.61798ZM31.9801 7.73361H31.9809V7.32528H31.9801V7.73361ZM31.6371 7.51928C31.7074 7.51888 31.7678 7.55911 31.796 7.61779L32.1641 7.44109C32.0693 7.24362 31.8668 7.10964 31.6348 7.11095L31.6371 7.51928ZM20.0615 7.61747L31.6377 7.51928L31.6342 7.11096L20.0581 7.20916L20.0615 7.61747ZM16.6764 2.34611L19.2133 7.87503L19.5844 7.70474L17.0475 2.17582L16.6764 2.34611ZM1.98572 32.7151L17.0449 2.35168L16.6791 2.17025L1.6199 32.5336L1.98572 32.7151ZM4.81695 38.6378L1.98802 32.5385L1.6176 32.7103L4.44652 38.8096L4.81695 38.6378ZM19.2155 7.70193L4.44749 38.6357L4.81599 38.8116L19.584 7.87785L19.2155 7.70193ZM19.3989 7.99405H19.3997V7.58572H19.3989V7.99405ZM33.6403 26.0112L28.2156 14.4794L27.8461 14.6532L33.2708 26.185L33.6403 26.0112ZM33.4547 26.3023H33.4556V25.8939H33.4547V26.3023ZM17.1506 26.2331L33.4539 26.3023L33.4556 25.8939L17.1523 25.8248L17.1506 26.2331ZM22.44 14.57L16.9675 25.9404L17.3354 26.1175L22.808 14.7471L22.44 14.57ZM28.0273 14.3622L22.6205 14.4544L22.6275 14.8627L28.0343 14.7705L28.0273 14.3622Z" fill="white"/>
</svg>
