 
<?xml version="1.0" encoding="utf-8"?>
<!-- Generator: Adobe Illustrator 21.1.0, SVG Export Plug-In . SVG Version: 6.00 Build 0)  -->
<svg version="1.1" xmlns="http://www.w3.org/2000/svg" xmlns:xlink="http://www.w3.org/1999/xlink" x="0px" y="0px"
	 viewBox="0 0 159.8 193.8" style="enable-background:new 0 0 159.8 193.8;" xml:space="preserve">
<style type="text/css">
	.st0{fill:url(#SVGID_1_);}
	.st1{fill:none;stroke:#F93764;stroke-width:4;stroke-linecap:round;stroke-miterlimit:10;}
	.st2{fill:#F7B14A;}
	.st3{fill:none;stroke:url(#SVGID_2_);stroke-linecap:round;stroke-linejoin:round;}
	.st4{fill:url(#SVGID_3_);}
	.st5{fill:none;stroke:url(#SVGID_4_);stroke-miterlimit:10;}
	.st6{fill:#F9B449;}
	.st7{font-family:'ArialMT';}
	.st8{font-size:26.71px;}
	.st9{fill:url(#SVGID_5_);}
	.st10{fill:none;stroke:url(#SVGID_6_);stroke-miterlimit:10;}
	.st11{font-size:17.58px;}
	.st12{fill:url(#SVGID_7_);}
	.st13{fill:none;stroke:url(#SVGID_8_);stroke-miterlimit:10;}
	.st14{font-size:12.58px;}
	.st15{fill:url(#Blue_1_);}
	.st16{fill:url(#Purple_1_);}
	.st17{fill:url(#Green_1_);}
	.st18{fill:url(#Yellow_1_);}
	.st19{fill:url(#Red_1_);}
</style>
<g id="Layer_1">
	<title>Pig with coins</title>
	<g id="Layer_2">
		
			<linearGradient id="SVGID_1_" gradientUnits="userSpaceOnUse" x1="1047.2551" y1="-389.383" x2="943.5851" y2="-314.053" gradientTransform="matrix(1 0 0 -1 -935 -213.37)">
			<stop  offset="0" style="stop-color:#F92468"/>
			<stop  offset="1" style="stop-color:#F9B449"/>
		</linearGradient>
		<path class="st0" d="M0,132.6l15-1c0,0,3-18,15-24v-20c0,0,14,8,17,9s30-12,61,7c26.1,16,20.3,44.1,17.8,52.5
			c-0.4,1.5-1.2,3-2.1,4.3c-2.2,3-6.5,9-8.7,11.2c-3,3,1.9,19.7-2,21c-3,1-9-12-12-11c-16.1,5.4-33.5,6-50,1.6
			c-1.1-0.3-2.3,0.2-2.8,1.3c-1.3,2.7-4,7.8-6.2,9.2c-3,2-3-11-6-13s-36-31-36-31L0,132.6z"/>
		<path class="st1" d="M125.5,135.7c0,0,12.3-8.7,18.8-2.2s5.5,13.2,0.3,14.8c-3.9,1.2-10.1-5.4-7.4-9.6s7.3-6.5,12.6-3
			s7.7,10.7,8,14.7"/>
		<circle class="st2" cx="32" cy="134" r="5.6"/>
		
			<linearGradient id="SVGID_2_" gradientUnits="userSpaceOnUse" x1="989.25" y1="-312.4813" x2="1027.12" y2="-312.4813" gradientTransform="matrix(1 0 0 -1 -935 -213.37)">
			<stop  offset="0" style="stop-color:#F92468"/>
			<stop  offset="1" style="stop-color:#F93764"/>
		</linearGradient>
		<path class="st3" d="M54.8,100.1c0,0,22.4-6,36.9,0.6"/>
	</g>
	<g id="coin">
		
			<linearGradient id="SVGID_3_" gradientUnits="userSpaceOnUse" x1="44.5302" y1="97.1299" x2="87.0802" y2="160.5099" gradientTransform="matrix(1 0 0 -1 0 196)">
			<stop  offset="0" style="stop-color:#F92468"/>
			<stop  offset="1" style="stop-color:#F9B449"/>
		</linearGradient>
		<circle class="st4" cx="73.7" cy="55.5" r="22.4"/>
		
			<linearGradient id="SVGID_4_" gradientUnits="userSpaceOnUse" x1="54.71" y1="140.43" x2="92.31" y2="140.43" gradientTransform="matrix(1 0 0 -1 0 196)">
			<stop  offset="0" style="stop-color:#F92468"/>
			<stop  offset="1" style="stop-color:#F93764"/>
		</linearGradient>
		<circle class="st5" cx="73.5" cy="55.6" r="18.3"/>
		<text transform="matrix(1 0 0 1 66.26 64.02)" class="st6 st7 st8">$</text>
	</g>
	<g id="coin_copy">
		
			<linearGradient id="SVGID_5_" gradientUnits="userSpaceOnUse" x1="80.5322" y1="152.7085" x2="108.5422" y2="194.4385" gradientTransform="matrix(1 0 0 -1 0 196)">
			<stop  offset="0" style="stop-color:#F92468"/>
			<stop  offset="1" style="stop-color:#F9B449"/>
		</linearGradient>
		<circle class="st9" cx="99.7" cy="14.7" r="14.7"/>
		
			<linearGradient id="SVGID_6_" gradientUnits="userSpaceOnUse" x1="87.06" y1="181.22" x2="112.16" y2="181.22" gradientTransform="matrix(1 0 0 -1 0 196)">
			<stop  offset="0" style="stop-color:#F92468"/>
			<stop  offset="1" style="stop-color:#F93764"/>
		</linearGradient>
		<circle class="st10" cx="99.6" cy="14.8" r="12.1"/>
		<text transform="matrix(1 0 0 1 94.83 20.34)" class="st6 st7 st11">$</text>
	</g>
	<g id="coin_copy_2">
		
			<linearGradient id="SVGID_7_" gradientUnits="userSpaceOnUse" x1="33.3236" y1="151.0676" x2="53.3736" y2="180.9276" gradientTransform="matrix(1 0 0 -1 0 196)">
			<stop  offset="0" style="stop-color:#F92468"/>
			<stop  offset="1" style="stop-color:#F9B449"/>
		</linearGradient>
		<circle class="st12" cx="47" cy="24.5" r="10.5"/>
		
			<linearGradient id="SVGID_8_" gradientUnits="userSpaceOnUse" x1="37.85" y1="171.47" x2="56.09" y2="171.47" gradientTransform="matrix(1 0 0 -1 0 196)">
			<stop  offset="0" style="stop-color:#F92468"/>
			<stop  offset="1" style="stop-color:#F93764"/>
		</linearGradient>
		<circle class="st13" cx="47" cy="24.5" r="8.6"/>
		<text transform="matrix(1 0 0 1 43.56 28.51)" class="st6 st7 st14">$</text>
	</g>
</g>
<g id="Gradients">
	<linearGradient id="Blue_1_" gradientUnits="userSpaceOnUse" x1="-64.9327" y1="-2" x2="-29.0673" y2="-2">
		<stop  offset="6.880928e-04" style="stop-color:#58CAEA"/>
		<stop  offset="0.9992" style="stop-color:#4B45BD"/>
	</linearGradient>
	<circle id="Blue" class="st15" cx="-47" cy="-2" r="17.9"/>
	<linearGradient id="Purple_1_" gradientUnits="userSpaceOnUse" x1="-66.0087" y1="44.2265" x2="-30.1433" y2="44.2265">
		<stop  offset="1.376186e-03" style="stop-color:#E5A4ED"/>
		<stop  offset="0.9978" style="stop-color:#7A5BF5"/>
	</linearGradient>
	<circle id="Purple" class="st16" cx="-48.1" cy="44.2" r="17.9"/>
	<linearGradient id="Green_1_" gradientUnits="userSpaceOnUse" x1="-66.5267" y1="93.2361" x2="-30.6613" y2="93.2361">
		<stop  offset="6.775068e-04" style="stop-color:#93DF93"/>
		<stop  offset="0.9993" style="stop-color:#21C2C1"/>
	</linearGradient>
	<circle id="Green" class="st17" cx="-48.6" cy="93.2" r="17.9"/>
	<linearGradient id="Yellow_1_" gradientUnits="userSpaceOnUse" x1="-67.5166" y1="141.4917" x2="-31.6513" y2="141.4917">
		<stop  offset="1.376186e-03" style="stop-color:#F8C547"/>
		<stop  offset="1" style="stop-color:#F71D69"/>
	</linearGradient>
	<circle id="Yellow" class="st18" cx="-49.6" cy="141.5" r="17.9"/>
	<linearGradient id="Red_1_" gradientUnits="userSpaceOnUse" x1="-67.5166" y1="189.7472" x2="-31.6513" y2="189.7472">
		<stop  offset="7.410230e-04" style="stop-color:#FD5D93"/>
		<stop  offset="1" style="stop-color:#EC250D"/>
	</linearGradient>
	<circle id="Red" class="st19" cx="-49.6" cy="189.7" r="17.9"/>
</g>
</svg>
