<?xml version="1.0" encoding="UTF-8" standalone="no"?>
<!-- Created with Inkscape (http://www.inkscape.org/) -->
<svg
   xmlns:svg="http://www.w3.org/2000/svg"
   xmlns="http://www.w3.org/2000/svg"
   version="1.0"
   width="175"
   height="97"
   id="svg2">
  <defs
     id="defs5" />
  <path
     d="M 8.3936629,85.49741 C 7.1737389,82.31834 9.6425849,80.42804 18.474256,77.7791 C 29.813717,74.37798 43.682683,72.677452 49.707842,70.34342 C 49.787781,70.312454 53.393951,69.183474 57.278726,65.09802 C 58.926326,63.365307 63.309486,59.640218 67.019066,56.820043 L 73.49901,51.639499 C 70.668805,51.485297 68.629276,51.062194 66.374538,49.359182 C 60.859294,54.704766 43.295098,63.894576 32.63716,61.549783 C 17.713131,58.266431 20.153397,40.090646 37.356494,27.102182 C 47.662987,19.320704 67.456197,12.829159 81.785076,13.069853 C 99.059335,12.029317 112.07202,25.604166 98.036673,41.205039 C 94.760443,44.632221 94.281446,44.946948 94.324243,45.098171 C 94.841655,46.926444 101.29162,46.007811 101.16392,45.882986 C 102.84747,45.012385 103.83305,44.321517 104.94017,43.866945 C 105.12515,43.790993 107.35512,45.117868 107.20117,45.244478 C 106.70448,45.65298 87.6467,55.576829 85.115523,56.881183 C 84.961079,56.960771 85.202041,58.835662 88.099031,59.393571 C 90.904061,59.933771 100.84468,54.993246 107.10063,49.175202 C 115.12555,41.712009 118.20197,43.066601 122.19713,45.481838 L 123.28325,44.468449 L 125.45932,44.510088 C 109.33035,61.696723 123.11418,56.996306 130.60587,45.569665 C 130.69807,45.429044 133.39758,45.680236 133.37012,45.720312 C 132.67519,46.734358 128.23938,53.737497 128.29619,54.24211 C 128.6144,57.068612 134.81759,51.358793 138.77874,45.855216 C 138.94094,45.798995 142.11139,45.938562 142.08571,46.026459 C 137.70157,50.107231 133.40142,57.214211 137.2636,57.091309 C 139.86537,57.008516 143.03196,54.110487 143.02795,53.709604 C 142.86004,52.499214 143.39404,50.1878 144.56751,48.720119 C 145.97718,46.957007 148.33304,46.250414 151.2261,47.010043 C 154.06719,47.756026 151.19508,54.27018 146.357,54.677883 C 146.21095,54.690191 146.53603,57.215801 149.01341,56.762033 C 150.91105,56.414452 152.08431,53.990736 154.32877,51.461548 C 157.50647,47.88073 159.37859,47.148333 161.95999,48.26192 C 163.32707,48.851664 163.8606,49.254973 163.90764,51.574828 C 163.93814,53.07934 163.26066,55.081422 162.42006,56.249317 C 161.16321,57.995537 159.48409,59.728177 157.01898,58.763908 C 155.16429,58.038416 154.64087,55.135846 154.49519,55.295434 C 150.58172,59.582615 146.35508,60.635094 144.38926,56.669814 C 143.8739,55.630276 143.95708,55.569343 143.89735,55.70295 C 140.73084,58.307017 135.27918,60.751531 133.93586,58.837313 C 133.48379,58.193114 133.05336,55.55636 132.91572,55.708907 C 131.18128,57.631242 127.56089,59.216966 125.51135,56.851821 C 124.88053,56.123863 125.8381,54.369244 125.35914,55.00888 C 124.94664,55.559757 121.99726,57.236733 120.42568,58.047912 C 117.74759,59.430226 115.11063,58.379502 114.5213,55.150106 L 114.46382,54.894962 L 111.16713,57.265533 C 108.0059,59.517371 103.75664,59.694794 100.89747,57.909214 C 99.394726,56.970736 101.10228,56.11738 99.440793,57.261696 C 95.79305,59.773996 87.152693,64.012451 83.632563,60.117493 C 82.857415,59.259806 82.663563,58.068024 82.477594,58.191819 C 76.833102,61.949229 71.261904,65.284929 71.805201,65.086902 C 74.995999,63.923884 88.306046,62.456531 103.28309,61.019094 C 117.26622,59.67705 157.64648,59.451546 164.23705,60.550029 C 173.28675,62.058386 158.59357,61.827173 135.78309,62.315197 C 89.173636,63.312394 64.515416,67.075675 47.304671,75.81857 C 44.5428,77.22158 36.967039,80.32707 30.469647,82.71967 C 17.677958,87.43008 9.5287739,88.45546 8.3936629,85.49741 z M 40.207669,75.248551 C 37.669811,74.554584 13.759547,80.85129 12.044098,82.27104 C 10.653766,83.42172 11.671981,85.027914 13.212655,84.82148 C 19.775404,83.936754 31.863291,79.950937 40.207669,75.248551 z M 81.484216,56.488481 C 81.690569,55.83447 78.77746,52.384157 76.805201,52.127794 C 71.396103,56.699409 66.067015,61.510863 59.376682,67.44679 C 59.215948,67.814613 69.857209,64.222749 81.484216,56.488481 z M 75.055923,38.903114 C 74.207365,38.962609 72.482826,39.0598 70.893616,38.741958 C 66.716096,37.906454 63.061426,34.132942 62.347706,29.918153 C 61.616496,25.600048 64.864452,22.240781 68.240934,21.894001 C 74.818144,21.218491 77.946925,25.054084 79.207365,31.913726 C 79.647203,34.307437 78.719586,36.931544 78.530764,37.07435 C 81.20304,37.396526 87.155175,37.030836 89.112756,36.1848 C 90.000164,35.801276 93.00117,34.61927 95.63707,33.161435 C 98.27297,31.7036 100.58321,30.081012 100.57602,30.03471 C 100.48304,29.436074 100.5774,29.016568 100.57384,29.008939 C 98.701809,12.054804 72.287797,16.225435 59.988386,19.989294 C 43.670954,25.947968 36.872643,30.624411 30.396878,39.75282 C 25.436563,46.745012 24.343797,53.630562 27.667012,56.953777 C 42.007242,65.741138 64.727788,47.729774 75.055923,38.903114 z M 111.80089,54.058428 C 114.38199,52.402144 117.26675,50.192898 118.21147,49.148993 C 119.84386,47.345226 119.82523,47.218003 117.83634,46.586754 C 116.29613,46.097911 114.02736,47.147159 109.24403,50.560476 C 103.10215,54.943227 101.88046,57.069853 105.50456,57.069853 C 106.38645,57.069853 109.2198,55.714712 111.80089,54.058428 z M 160.80349,53.721247 C 161.70936,49.596827 160.60872,49.008308 157.52199,52.077681 C 155.08903,54.496962 155.5629,55.618763 158.00645,56.233355 C 159.23315,56.541892 159.92523,56.157801 160.80349,53.721247 z M 84.531111,54.88259 C 89.280441,52.497139 97.434984,48.412149 97.339481,48.42975 C 96.344045,48.613201 92.823729,49.399399 92.114589,47.254809 C 91.943982,46.738856 83.168895,53.614239 83.291419,53.862613 C 83.928721,55.154518 84.454572,54.792898 84.531111,54.88259 z M 149.81097,51.31456 C 150.25711,50.233692 150.09161,49.135407 149.31515,48.920522 C 146.83858,48.235129 144.65637,50.061754 145.89524,52.95908 C 146.00183,53.208382 149.35988,52.407424 149.81097,51.31456 z M 82.07497,51.810379 C 83.877753,49.28942 88.958461,45.343837 91.284183,44.54482 C 94.935202,43.290489 101.983,34.028628 100.82201,34.042198 C 99.446427,34.058854 78.871514,49.316763 79.35412,50.127479 C 80.810101,50.732838 81.331659,50.727927 82.07497,51.810379 z M 82.134778,43.794026 L 88.694096,39.24657 C 88.694096,39.24657 85.678986,39.782197 83.540963,39.635315 C 81.402941,39.488433 79.033276,39.305802 78.106705,39.162807 C 77.766694,39.110334 76.509886,40.220182 72.910076,43.669625 C 69.742976,46.704437 69.20245,47.541497 69.525457,47.812902 C 72.194016,50.055148 75.652844,49.315633 75.950661,49.034215 C 76.092544,49.041896 78.939853,46.529656 82.134778,43.794026 z M 75.201306,36.462864 C 79.044856,34.987952 75.078206,25.069853 70.644766,25.069853 C 64.419406,25.069853 62.621518,30.608918 67.859816,34.480959 C 70.592047,36.500567 73.078185,36.991449 75.201306,36.462864 z"
     id="path2384"
     style="fill:#000000" />
</svg>
